<svg xmlns="http://www.w3.org/2000/svg" width="16" height="16" viewBox="0 0 16 16" fill="none">
  <path d="M10 1.33333H4.00001C3.64638 1.33333 3.30724 1.4738 3.0572 1.72385C2.80715 1.9739 2.66667 2.31304 2.66667 2.66666V13.3333C2.66667 13.687 2.80715 14.0261 3.0572 14.2761C3.30724 14.5262 3.64638 14.6667 4.00001 14.6667H12C12.3536 14.6667 12.6928 14.5262 12.9428 14.2761C13.1929 14.0261 13.3333 13.687 13.3333 13.3333V4.66666L10 1.33333Z" stroke="black" stroke-linecap="round" stroke-linejoin="round"/>
  <path d="M9.33333 1.33333V3.99999C9.33333 4.35362 9.4738 4.69276 9.72385 4.9428C9.9739 5.19285 10.313 5.33333 10.6667 5.33333H13.3333" stroke="black" stroke-linecap="round" stroke-linejoin="round"/>
  <path d="M8 12V8" stroke="black" stroke-linecap="round" stroke-linejoin="round"/>
  <path d="M6 10L8 12L10 10" stroke="black" stroke-linecap="round" stroke-linejoin="round"/>
</svg>