<svg xmlns="http://www.w3.org/2000/svg" width="16" height="16" viewBox="0 0 16 16" fill="none">
  <path d="M1.33334 7.66667V3.33333C1.33334 2.97971 1.47382 2.64057 1.72387 2.39052C1.97392 2.14048 2.31305 2 2.66668 2H5.26668C5.73334 2 6.13334 2.2 6.40001 2.6L6.93334 3.4C7.20001 3.8 7.60001 4 8.06668 4H13.3333C13.687 4 14.0261 4.14048 14.2762 4.39052C14.5262 4.64057 14.6667 4.97971 14.6667 5.33333V12C14.6667 12.3536 14.5262 12.6928 14.2762 12.9428C14.0261 13.1929 13.687 13.3333 13.3333 13.3333H7.00001" stroke="#09090B" stroke-linecap="round" stroke-linejoin="round"/>
  <path d="M7.58535 9.084C7.71685 8.9525 7.82116 8.79639 7.89232 8.62458C7.96349 8.45277 8.00011 8.26863 8.00011 8.08266C8.00011 7.8967 7.96349 7.71256 7.89232 7.54075C7.82116 7.36894 7.71685 7.21283 7.58535 7.08133C7.45385 6.94983 7.29774 6.84552 7.12593 6.77436C6.95412 6.70319 6.76998 6.66656 6.58402 6.66656C6.39805 6.66656 6.21391 6.70319 6.0421 6.77436C5.87029 6.84552 5.71418 6.94983 5.58268 7.08133L2.24268 10.4227C2.08418 10.5811 1.96816 10.7769 1.90535 10.992L1.34735 12.9053C1.33062 12.9627 1.32961 13.0235 1.34444 13.0814C1.35927 13.1393 1.38939 13.1921 1.43165 13.2344C1.4739 13.2766 1.52674 13.3067 1.58462 13.3216C1.64251 13.3364 1.70332 13.3354 1.76068 13.3187L3.67402 12.7607C3.88913 12.6979 4.08493 12.5818 4.24335 12.4233L7.58535 9.084Z" stroke="#09090B" stroke-linecap="round" stroke-linejoin="round"/>
</svg>