<svg xmlns="http://www.w3.org/2000/svg" width="17" height="18" viewBox="0 0 17 18" fill="none">
  <path d="M10.4371 10.3699L9.91048 10.3616L9.72667 10.1787C10.4149 9.40551 10.8021 8.41058 10.8176 7.37556C10.8311 6.51861 10.5902 5.6769 10.1254 4.95688C9.6605 4.23685 8.99256 3.67084 8.20601 3.33043C7.41946 2.99001 6.54963 2.89048 5.70652 3.04442C4.86341 3.19836 4.08487 3.59885 3.46937 4.19526C2.85387 4.79166 2.42905 5.55719 2.24862 6.39503C2.0682 7.23288 2.14027 8.10541 2.45574 8.9023C2.7712 9.69918 3.31588 10.3846 4.02091 10.8719C4.72593 11.3593 5.55963 11.6266 6.41657 11.6401C7.48977 11.657 8.48251 11.2792 9.25271 10.638L9.42975 10.8275L9.42145 11.3541L12.702 14.7328L13.7108 13.7553L10.4371 10.3699ZM6.43758 10.3069C4.77779 10.2808 3.45906 8.91981 3.48522 7.26002C3.51137 5.60022 4.87232 4.2815 6.53211 4.30765C8.19191 4.33381 9.51063 5.69475 9.48447 7.35455C9.45832 9.01434 8.09737 10.3331 6.43758 10.3069Z" fill="#71717A"/>
</svg>